<?xml version="1.0" encoding="UTF-8" standalone="no"?>
<!DOCTYPE svg PUBLIC "-//W3C//DTD SVG 1.1//EN"
 "http://www.w3.org/Graphics/SVG/1.1/DTD/svg11.dtd">
<!-- Generated by graphviz version 2.47.0 (20210316.0004)
 -->
<!-- Title: dbml Pages: 1 -->
<svg width="1253pt" height="692pt"
 viewBox="0.00 0.00 1253.15 692.48" xmlns="http://www.w3.org/2000/svg" xmlns:xlink="http://www.w3.org/1999/xlink">
<g id="graph0" class="graph" transform="scale(1 1) rotate(0) translate(4 688.48)">
<title>dbml</title>
<!-- users -->
<g id="users" class="node">
<title>users</title>
<ellipse fill="none" stroke="black" stroke-width="0" cx="305.47" cy="-342.24" rx="305.44" ry="342.48"/>
<polygon fill="#1d71b8" stroke="transparent" points="91.47,-522.24 91.47,-582.24 519.47,-582.24 519.47,-522.24 91.47,-522.24"/>
<polygon fill="none" stroke="#29235c" points="91.47,-522.24 91.47,-582.24 519.47,-582.24 519.47,-522.24 91.47,-522.24"/>
<text text-anchor="start" x="204.11" y="-543.44" font-family="Helvetica,sans-Serif" font-weight="bold" font-size="32.00" fill="#ffffff"> &#160;&#160;&#160;&#160;&#160;&#160;users &#160;&#160;&#160;&#160;&#160;&#160;</text>
<polygon fill="#e7e2dd" stroke="transparent" points="91.47,-462.24 91.47,-522.24 519.47,-522.24 519.47,-462.24 91.47,-462.24"/>
<polygon fill="none" stroke="#29235c" points="91.47,-462.24 91.47,-522.24 519.47,-522.24 519.47,-462.24 91.47,-462.24"/>
<text text-anchor="start" x="102.47" y="-483.44" font-family="Helvetica,sans-Serif" font-weight="bold" font-size="32.00" fill="#29235c">id</text>
<text text-anchor="start" x="127.36" y="-483.44" font-family="Helvetica,sans-Serif" font-size="32.00" fill="#29235c"> &#160;&#160;&#160;</text>
<text text-anchor="start" x="448" y="-483.44" font-family="Helvetica,sans-Serif" font-style="italic" font-size="32.00" fill="#29235c">uuid</text>
<polygon fill="#e7e2dd" stroke="transparent" points="91.47,-402.24 91.47,-462.24 519.47,-462.24 519.47,-402.24 91.47,-402.24"/>
<polygon fill="none" stroke="#29235c" points="91.47,-402.24 91.47,-462.24 519.47,-462.24 519.47,-402.24 91.47,-402.24"/>
<text text-anchor="start" x="102.47" y="-422.44" font-family="Helvetica,sans-Serif" font-size="32.00" fill="#29235c">name &#160;&#160;&#160;</text>
<text text-anchor="start" x="417.8" y="-423.44" font-family="Helvetica,sans-Serif" font-style="italic" font-size="32.00" fill="#29235c">text</text>
<text text-anchor="start" x="469.38" y="-423.44" font-family="Helvetica,sans-Serif" font-size="32.00" fill="#29235c"> </text>
<text text-anchor="start" x="478.27" y="-423.44" font-family="Helvetica,sans-Serif" font-weight="bold" font-size="32.00" fill="#29235c">(!)</text>
<polygon fill="#e7e2dd" stroke="transparent" points="91.47,-342.24 91.47,-402.24 519.47,-402.24 519.47,-342.24 91.47,-342.24"/>
<polygon fill="none" stroke="#29235c" points="91.47,-342.24 91.47,-402.24 519.47,-402.24 519.47,-342.24 91.47,-342.24"/>
<text text-anchor="start" x="102.47" y="-362.44" font-family="Helvetica,sans-Serif" font-size="32.00" fill="#29235c">email &#160;&#160;&#160;</text>
<text text-anchor="start" x="417.8" y="-363.44" font-family="Helvetica,sans-Serif" font-style="italic" font-size="32.00" fill="#29235c">text</text>
<text text-anchor="start" x="469.38" y="-363.44" font-family="Helvetica,sans-Serif" font-size="32.00" fill="#29235c"> </text>
<text text-anchor="start" x="478.27" y="-363.44" font-family="Helvetica,sans-Serif" font-weight="bold" font-size="32.00" fill="#29235c">(!)</text>
<polygon fill="#e7e2dd" stroke="transparent" points="91.47,-282.24 91.47,-342.24 519.47,-342.24 519.47,-282.24 91.47,-282.24"/>
<polygon fill="none" stroke="#29235c" points="91.47,-282.24 91.47,-342.24 519.47,-342.24 519.47,-282.24 91.47,-282.24"/>
<text text-anchor="start" x="102.47" y="-302.44" font-family="Helvetica,sans-Serif" font-size="32.00" fill="#29235c">email_verified &#160;&#160;&#160;</text>
<text text-anchor="start" x="355.55" y="-303.44" font-family="Helvetica,sans-Serif" font-style="italic" font-size="32.00" fill="#29235c">boolean</text>
<text text-anchor="start" x="469.38" y="-303.44" font-family="Helvetica,sans-Serif" font-size="32.00" fill="#29235c"> </text>
<text text-anchor="start" x="478.27" y="-303.44" font-family="Helvetica,sans-Serif" font-weight="bold" font-size="32.00" fill="#29235c">(!)</text>
<polygon fill="#e7e2dd" stroke="transparent" points="91.47,-222.24 91.47,-282.24 519.47,-282.24 519.47,-222.24 91.47,-222.24"/>
<polygon fill="none" stroke="#29235c" points="91.47,-222.24 91.47,-282.24 519.47,-282.24 519.47,-222.24 91.47,-222.24"/>
<text text-anchor="start" x="102.47" y="-242.44" font-family="Helvetica,sans-Serif" font-size="32.00" fill="#29235c">image &#160;&#160;&#160;</text>
<text text-anchor="start" x="456.9" y="-243.44" font-family="Helvetica,sans-Serif" font-style="italic" font-size="32.00" fill="#29235c">text</text>
<polygon fill="#e7e2dd" stroke="transparent" points="91.47,-162.24 91.47,-222.24 519.47,-222.24 519.47,-162.24 91.47,-162.24"/>
<polygon fill="none" stroke="#29235c" points="91.47,-162.24 91.47,-222.24 519.47,-222.24 519.47,-162.24 91.47,-162.24"/>
<text text-anchor="start" x="102.47" y="-182.44" font-family="Helvetica,sans-Serif" font-size="32.00" fill="#29235c">created_at &#160;&#160;&#160;</text>
<text text-anchor="start" x="296.93" y="-183.44" font-family="Helvetica,sans-Serif" font-style="italic" font-size="32.00" fill="#29235c">timestamptz</text>
<text text-anchor="start" x="469.38" y="-183.44" font-family="Helvetica,sans-Serif" font-size="32.00" fill="#29235c"> </text>
<text text-anchor="start" x="478.27" y="-183.44" font-family="Helvetica,sans-Serif" font-weight="bold" font-size="32.00" fill="#29235c">(!)</text>
<polygon fill="#e7e2dd" stroke="transparent" points="91.47,-102.24 91.47,-162.24 519.47,-162.24 519.47,-102.24 91.47,-102.24"/>
<polygon fill="none" stroke="#29235c" points="91.47,-102.24 91.47,-162.24 519.47,-162.24 519.47,-102.24 91.47,-102.24"/>
<text text-anchor="start" x="102.14" y="-122.44" font-family="Helvetica,sans-Serif" font-size="32.00" fill="#29235c">updated_at &#160;&#160;&#160;</text>
<text text-anchor="start" x="297.2" y="-123.44" font-family="Helvetica,sans-Serif" font-style="italic" font-size="32.00" fill="#29235c">timestamptz</text>
<text text-anchor="start" x="469.65" y="-123.44" font-family="Helvetica,sans-Serif" font-size="32.00" fill="#29235c"> </text>
<text text-anchor="start" x="478.54" y="-123.44" font-family="Helvetica,sans-Serif" font-weight="bold" font-size="32.00" fill="#29235c">(!)</text>
<polygon fill="none" stroke="#29235c" stroke-width="2" points="90.47,-101.24 90.47,-583.24 520.47,-583.24 520.47,-101.24 90.47,-101.24"/>
</g>
<!-- sessions -->
<g id="sessions" class="node">
<title>sessions</title>
<ellipse fill="none" stroke="black" stroke-width="0" cx="946.05" cy="-402.24" rx="299.21" ry="257.27"/>
<polygon fill="#1d71b8" stroke="transparent" points="737.05,-522.24 737.05,-582.24 1156.05,-582.24 1156.05,-522.24 737.05,-522.24"/>
<polygon fill="none" stroke="#29235c" points="737.05,-522.24 737.05,-582.24 1156.05,-582.24 1156.05,-522.24 737.05,-522.24"/>
<text text-anchor="start" x="822.06" y="-543.44" font-family="Helvetica,sans-Serif" font-weight="bold" font-size="32.00" fill="#ffffff"> &#160;&#160;&#160;&#160;&#160;&#160;sessions &#160;&#160;&#160;&#160;&#160;&#160;</text>
<polygon fill="#e7e2dd" stroke="transparent" points="737.05,-462.24 737.05,-522.24 1156.05,-522.24 1156.05,-462.24 737.05,-462.24"/>
<polygon fill="none" stroke="#29235c" points="737.05,-462.24 737.05,-522.24 1156.05,-522.24 1156.05,-462.24 737.05,-462.24"/>
<text text-anchor="start" x="748.05" y="-483.44" font-family="Helvetica,sans-Serif" font-weight="bold" font-size="32.00" fill="#29235c">id</text>
<text text-anchor="start" x="772.94" y="-483.44" font-family="Helvetica,sans-Serif" font-size="32.00" fill="#29235c"> &#160;&#160;&#160;</text>
<text text-anchor="start" x="1084.58" y="-483.44" font-family="Helvetica,sans-Serif" font-style="italic" font-size="32.00" fill="#29235c">uuid</text>
<polygon fill="#e7e2dd" stroke="transparent" points="737.05,-402.24 737.05,-462.24 1156.05,-462.24 1156.05,-402.24 737.05,-402.24"/>
<polygon fill="none" stroke="#29235c" points="737.05,-402.24 737.05,-462.24 1156.05,-462.24 1156.05,-402.24 737.05,-402.24"/>
<text text-anchor="start" x="748.05" y="-422.44" font-family="Helvetica,sans-Serif" font-size="32.00" fill="#29235c">user_id &#160;&#160;&#160;</text>
<text text-anchor="start" x="1045.49" y="-423.44" font-family="Helvetica,sans-Serif" font-style="italic" font-size="32.00" fill="#29235c">uuid</text>
<text text-anchor="start" x="1105.96" y="-423.44" font-family="Helvetica,sans-Serif" font-size="32.00" fill="#29235c"> </text>
<text text-anchor="start" x="1114.85" y="-423.44" font-family="Helvetica,sans-Serif" font-weight="bold" font-size="32.00" fill="#29235c">(!)</text>
<polygon fill="#e7e2dd" stroke="transparent" points="737.05,-342.24 737.05,-402.24 1156.05,-402.24 1156.05,-342.24 737.05,-342.24"/>
<polygon fill="none" stroke="#29235c" points="737.05,-342.24 737.05,-402.24 1156.05,-402.24 1156.05,-342.24 737.05,-342.24"/>
<text text-anchor="start" x="748.05" y="-362.44" font-family="Helvetica,sans-Serif" font-size="32.00" fill="#29235c">csrf_token &#160;&#160;&#160;</text>
<text text-anchor="start" x="1054.38" y="-363.44" font-family="Helvetica,sans-Serif" font-style="italic" font-size="32.00" fill="#29235c">text</text>
<text text-anchor="start" x="1105.96" y="-363.44" font-family="Helvetica,sans-Serif" font-size="32.00" fill="#29235c"> </text>
<text text-anchor="start" x="1114.85" y="-363.44" font-family="Helvetica,sans-Serif" font-weight="bold" font-size="32.00" fill="#29235c">(!)</text>
<polygon fill="#e7e2dd" stroke="transparent" points="737.05,-282.24 737.05,-342.24 1156.05,-342.24 1156.05,-282.24 737.05,-282.24"/>
<polygon fill="none" stroke="#29235c" points="737.05,-282.24 737.05,-342.24 1156.05,-342.24 1156.05,-282.24 737.05,-282.24"/>
<text text-anchor="start" x="748.05" y="-302.44" font-family="Helvetica,sans-Serif" font-size="32.00" fill="#29235c">expires_at &#160;&#160;&#160;</text>
<text text-anchor="start" x="933.5" y="-303.44" font-family="Helvetica,sans-Serif" font-style="italic" font-size="32.00" fill="#29235c">timestamptz</text>
<text text-anchor="start" x="1105.96" y="-303.44" font-family="Helvetica,sans-Serif" font-size="32.00" fill="#29235c"> </text>
<text text-anchor="start" x="1114.85" y="-303.44" font-family="Helvetica,sans-Serif" font-weight="bold" font-size="32.00" fill="#29235c">(!)</text>
<polygon fill="#e7e2dd" stroke="transparent" points="737.05,-222.24 737.05,-282.24 1156.05,-282.24 1156.05,-222.24 737.05,-222.24"/>
<polygon fill="none" stroke="#29235c" points="737.05,-222.24 737.05,-282.24 1156.05,-282.24 1156.05,-222.24 737.05,-222.24"/>
<text text-anchor="start" x="747.68" y="-242.44" font-family="Helvetica,sans-Serif" font-size="32.00" fill="#29235c">created_at &#160;&#160;&#160;</text>
<text text-anchor="start" x="933.78" y="-243.44" font-family="Helvetica,sans-Serif" font-style="italic" font-size="32.00" fill="#29235c">timestamptz</text>
<text text-anchor="start" x="1106.23" y="-243.44" font-family="Helvetica,sans-Serif" font-size="32.00" fill="#29235c"> </text>
<text text-anchor="start" x="1115.12" y="-243.44" font-family="Helvetica,sans-Serif" font-weight="bold" font-size="32.00" fill="#29235c">(!)</text>
<polygon fill="none" stroke="#29235c" stroke-width="2" points="735.55,-221.24 735.55,-583.24 1156.55,-583.24 1156.55,-221.24 735.55,-221.24"/>
</g>
<!-- users&#45;&gt;sessions -->
<!-- users&#45;&gt;sessions -->
<g id="edge2" class="edge">
<title>users:e&#45;&gt;sessions:w</title>
<path fill="none" stroke="#29235c" stroke-width="3" d="M520.47,-492.24C616.43,-492.24 635.32,-436.38 725.86,-432.46"/>
<polygon fill="#29235c" stroke="#29235c" stroke-width="3" points="726.12,-435.95 736.05,-432.24 725.97,-428.95 726.12,-435.95"/>
<text text-anchor="middle" x="729.82" y="-441.84" font-family="Helvetica,sans-Serif" font-size="32.00" fill="#29235c">*</text>
<text text-anchor="middle" x="511.58" y="-501.84" font-family="Helvetica,sans-Serif" font-size="32.00" fill="#29235c">1</text>
</g>
</g>
</svg>
