<svg xmlns="http://www.w3.org/2000/svg" viewBox="0 0 32 32" fill="none">
    <defs>
        <linearGradient id="bg" x1="0%" y1="0%" x2="100%" y2="100%">
            <stop offset="0%" stop-color="#6366F1" />
            <stop offset="50%" stop-color="#4F46E5" />
            <stop offset="100%" stop-color="#4338CA" />
        </linearGradient>
    </defs>

    <!-- Rounded square background -->
    <rect width="32" height="32" rx="7" fill="url(#bg)" />

    <!-- Cloud shape - simplified for favicon -->
    <path
        d="M25.5 16.5c0-2.5-2-4.5-4.5-4.5-.5 0-1 .08-1.4.23C18.7 10.3 16.8 9 14.5 9c-3 0-5.5 2.5-5.5 5.5 0 .17 0 .34.02.5C7.6 15.5 6.5 16.9 6.5 18.5c0 2.2 1.8 4 4 4h11c2.2 0 4-1.8 4-4 0-.9-.3-1.7-.8-2.4.5-.2.8-.9.8-1.6z"
        fill="#fff" opacity="0.95" />

    <!-- Upload arrow -->
    <g transform="translate(16, 16)">
        <rect x="-1.2" y="-1" width="2.4" height="5.5" rx="1.2" fill="url(#bg)" />
        <path d="M0 -4.5 L3 -0.5 L-3 -0.5 Z" fill="url(#bg)" />
    </g>

    <!-- Base line -->
    <rect x="12.5" y="21" width="8" height="1" rx="0.5" fill="url(#bg)" opacity="0.7" />
</svg>
