<svg xmlns="http://www.w3.org/2000/svg" width="500" height="1440" preserveAspectRatio="none" viewBox="0 0 500 1440"><g fill="none" mask="url(&quot;#a&quot;)"><path stroke="#03305d" stroke-width="2" d="m74.92 714.96 64.96 37.5v75l-64.96 37.5-64.95-37.5v-75zm129.91-450 64.96 37.5v75l-64.96 37.5-64.95-37.5v-75zm-64.95 337.5 64.95 37.5v75l-64.95 37.5-64.96-37.5v-75zm129.91-225 64.95 37.5v75l-64.95 37.5-64.96-37.5v-75zm0 675 64.95 37.5v75l-64.95 37.5-64.96-37.5v-75zm194.86 337.5 64.95 37.5v75l-64.95 37.5-64.96-37.5v-75z"/><path fill="#03305d" d="M67.42 714.96a7.5 7.5 0 1 0 15 0 7.5 7.5 0 1 0-15 0m64.96 37.5a7.5 7.5 0 1 0 15 0 7.5 7.5 0 1 0-15 0m0 75a7.5 7.5 0 1 0 15 0 7.5 7.5 0 1 0-15 0m-64.96 37.5a7.5 7.5 0 1 0 15 0 7.5 7.5 0 1 0-15 0m-64.95-37.5a7.5 7.5 0 1 0 15 0 7.5 7.5 0 1 0-15 0m0-75a7.5 7.5 0 1 0 15 0 7.5 7.5 0 1 0-15 0m194.86-487.5a7.5 7.5 0 1 0 15 0 7.5 7.5 0 1 0-15 0m64.96 37.5a7.5 7.5 0 1 0 15 0 7.5 7.5 0 1 0-15 0m0 75a7.5 7.5 0 1 0 15 0 7.5 7.5 0 1 0-15 0m-64.96 37.5a7.5 7.5 0 1 0 15 0 7.5 7.5 0 1 0-15 0m-64.95-37.5a7.5 7.5 0 1 0 15 0 7.5 7.5 0 1 0-15 0m0-75a7.5 7.5 0 1 0 15 0 7.5 7.5 0 1 0-15 0m0 300a7.5 7.5 0 1 0 15 0 7.5 7.5 0 1 0-15 0m64.95 37.5a7.5 7.5 0 1 0 15 0 7.5 7.5 0 1 0-15 0m0 75a7.5 7.5 0 1 0 15 0 7.5 7.5 0 1 0-15 0m-129.91-75a7.5 7.5 0 1 0 15 0 7.5 7.5 0 1 0-15 0m259.82-225a7.5 7.5 0 1 0 15 0 7.5 7.5 0 1 0-15 0m0 75a7.5 7.5 0 1 0 15 0 7.5 7.5 0 1 0-15 0m-64.95 37.5a7.5 7.5 0 1 0 15 0 7.5 7.5 0 1 0-15 0m-64.96-37.5a7.5 7.5 0 1 0 15 0 7.5 7.5 0 1 0-15 0m64.96 562.5a7.5 7.5 0 1 0 15 0 7.5 7.5 0 1 0-15 0m64.95 37.5a7.5 7.5 0 1 0 15 0 7.5 7.5 0 1 0-15 0m0 75a7.5 7.5 0 1 0 15 0 7.5 7.5 0 1 0-15 0m-64.95 37.5a7.5 7.5 0 1 0 15 0 7.5 7.5 0 1 0-15 0m-64.96-37.5a7.5 7.5 0 1 0 15 0 7.5 7.5 0 1 0-15 0m0-75a7.5 7.5 0 1 0 15 0 7.5 7.5 0 1 0-15 0m259.82 300a7.5 7.5 0 1 0 15 0 7.5 7.5 0 1 0-15 0m64.95 37.5a7.5 7.5 0 1 0 15 0 7.5 7.5 0 1 0-15 0m0 75a7.5 7.5 0 1 0 15 0 7.5 7.5 0 1 0-15 0m-64.95 37.5a7.5 7.5 0 1 0 15 0 7.5 7.5 0 1 0-15 0m-64.96-37.5a7.5 7.5 0 1 0 15 0 7.5 7.5 0 1 0-15 0m0-75a7.5 7.5 0 1 0 15 0 7.5 7.5 0 1 0-15 0"/><path stroke="rgba(6, 80, 156, 0.93)" stroke-width="2" d="m49.28 664.8 43.31 25v50l-43.31 25-43.3-25v-50zm-43.3 75 43.3 25v50l-43.3 25-43.3-25v-50zm0 300 43.3 25v50l-43.3 25-43.3-25v-50zm43.3 75 43.31 25v50l-43.31 25-43.3-25v-50zm-43.3 225 43.3 25v50l-43.3 25-43.3-25v-50zm129.91-975 43.3 25v50l-43.3 25-43.3-25v-50zm-43.3 75 43.3 25v50l-43.3 25-43.31-25v-50zm0 150 43.3 25v50l-43.3 25-43.31-25v-50zm43.3 375 43.3 25v50l-43.3 25-43.3-25v-50zm0 450 43.3 25v50l-43.3 25-43.3-25v-50zm86.6-1350 43.31 25v50l-43.31 25-43.3-25v-50zm-43.3 75 43.3 25v50l-43.3 25-43.3-25v-50zm43.3 75 43.31 25v50l-43.31 25-43.3-25v-50zm-43.3 75 43.3 25v50l-43.3 25-43.3-25v-50zm43.3 225 43.31 25v50l-43.31 25-43.3-25v-50zm0 150 43.31 25v50l-43.31 25-43.3-25v-50zm-43.3 75 43.3 25v50l-43.3 25-43.3-25v-50zm86.61-450 43.3 25v50l-43.3 25-43.31-25v-50zm0 300 43.3 25v50l-43.3 25-43.31-25v-50zm0 450 43.3 25v50l-43.3 25-43.31-25v-50zm129.9-825 43.31 25v50l-43.31 25-43.3-25v-50zm0 150 43.31 25v50l-43.31 25-43.3-25v-50zm0 150 43.31 25v50l-43.31 25-43.3-25v-50zm-43.3 75 43.3 25v50l-43.3 25-43.3-25v-50zm43.3 375 43.31 25v50l-43.31 25-43.3-25v-50zm0 150 43.31 25v50l-43.31 25-43.3-25v-50zm43.31-1125 43.3 25v50l-43.3 25-43.31-25v-50zm43.3 75 43.3 25v50l-43.3 25-43.3-25v-50zm-43.3 75 43.3 25v50l-43.3 25-43.31-25v-50zm0 150 43.3 25v50l-43.3 25-43.31-25v-50zm43.3 75 43.3 25v50l-43.3 25-43.3-25v-50zm-43.3 75 43.3 25v50l-43.3 25-43.31-25v-50zm43.3 225 43.3 25v50l-43.3 25-43.3-25v-50zm-43.3 375 43.3 25v50l-43.3 25-43.31-25v-50zm43.3 75 43.3 25v50l-43.3 25-43.3-25v-50zm-43.3 75 43.3 25v50l-43.3 25-43.31-25v-50zm43.3 225 43.3 25v50l-43.3 25-43.3-25v-50z"/></g><defs><mask id="a"><path fill="#fff" d="M0 0h500v1440H0z"/></mask></defs></svg>