<svg xmlns="http://www.w3.org/2000/svg" version="1.1" xmlns:xlink="http://www.w3.org/1999/xlink" xmlns:svgjs="http://svgjs.dev/svgjs" width="500" height="1440" preserveAspectRatio="none" viewBox="0 0 500 1440">
    <g mask="url(&quot;#SvgjsMask1009&quot;)" fill="none">
        <path d="M74.92 714.96L139.88 752.46L139.88 827.46L74.92 864.96L9.97 827.46L9.97 752.46zM204.83 264.96L269.79 302.46L269.79 377.46L204.83 414.96L139.88 377.46L139.88 302.46zM139.88 602.46L204.83 639.96L204.83 714.96L139.88 752.46L74.92 714.96L74.92 639.96zM269.79 377.46L334.74 414.96L334.74 489.96L269.79 527.46L204.83 489.96L204.83 414.96zM269.79 1052.46L334.74 1089.96L334.74 1164.96L269.79 1202.46L204.83 1164.96L204.83 1089.96zM464.65 1389.96L529.6 1427.46L529.6 1502.46L464.65 1539.96L399.69 1502.46L399.69 1427.46z" stroke="#03305d" stroke-width="2"></path>
        <path d="M67.42 714.96 a7.5 7.5 0 1 0 15 0 a7.5 7.5 0 1 0 -15 0zM132.38 752.46 a7.5 7.5 0 1 0 15 0 a7.5 7.5 0 1 0 -15 0zM132.38 827.46 a7.5 7.5 0 1 0 15 0 a7.5 7.5 0 1 0 -15 0zM67.42 864.96 a7.5 7.5 0 1 0 15 0 a7.5 7.5 0 1 0 -15 0zM2.47 827.46 a7.5 7.5 0 1 0 15 0 a7.5 7.5 0 1 0 -15 0zM2.47 752.46 a7.5 7.5 0 1 0 15 0 a7.5 7.5 0 1 0 -15 0zM197.33 264.96 a7.5 7.5 0 1 0 15 0 a7.5 7.5 0 1 0 -15 0zM262.29 302.46 a7.5 7.5 0 1 0 15 0 a7.5 7.5 0 1 0 -15 0zM262.29 377.46 a7.5 7.5 0 1 0 15 0 a7.5 7.5 0 1 0 -15 0zM197.33 414.96 a7.5 7.5 0 1 0 15 0 a7.5 7.5 0 1 0 -15 0zM132.38 377.46 a7.5 7.5 0 1 0 15 0 a7.5 7.5 0 1 0 -15 0zM132.38 302.46 a7.5 7.5 0 1 0 15 0 a7.5 7.5 0 1 0 -15 0zM132.38 602.46 a7.5 7.5 0 1 0 15 0 a7.5 7.5 0 1 0 -15 0zM197.33 639.96 a7.5 7.5 0 1 0 15 0 a7.5 7.5 0 1 0 -15 0zM197.33 714.96 a7.5 7.5 0 1 0 15 0 a7.5 7.5 0 1 0 -15 0zM67.42 639.96 a7.5 7.5 0 1 0 15 0 a7.5 7.5 0 1 0 -15 0zM327.24 414.96 a7.5 7.5 0 1 0 15 0 a7.5 7.5 0 1 0 -15 0zM327.24 489.96 a7.5 7.5 0 1 0 15 0 a7.5 7.5 0 1 0 -15 0zM262.29 527.46 a7.5 7.5 0 1 0 15 0 a7.5 7.5 0 1 0 -15 0zM197.33 489.96 a7.5 7.5 0 1 0 15 0 a7.5 7.5 0 1 0 -15 0zM262.29 1052.46 a7.5 7.5 0 1 0 15 0 a7.5 7.5 0 1 0 -15 0zM327.24 1089.96 a7.5 7.5 0 1 0 15 0 a7.5 7.5 0 1 0 -15 0zM327.24 1164.96 a7.5 7.5 0 1 0 15 0 a7.5 7.5 0 1 0 -15 0zM262.29 1202.46 a7.5 7.5 0 1 0 15 0 a7.5 7.5 0 1 0 -15 0zM197.33 1164.96 a7.5 7.5 0 1 0 15 0 a7.5 7.5 0 1 0 -15 0zM197.33 1089.96 a7.5 7.5 0 1 0 15 0 a7.5 7.5 0 1 0 -15 0zM457.15 1389.96 a7.5 7.5 0 1 0 15 0 a7.5 7.5 0 1 0 -15 0zM522.1 1427.46 a7.5 7.5 0 1 0 15 0 a7.5 7.5 0 1 0 -15 0zM522.1 1502.46 a7.5 7.5 0 1 0 15 0 a7.5 7.5 0 1 0 -15 0zM457.15 1539.96 a7.5 7.5 0 1 0 15 0 a7.5 7.5 0 1 0 -15 0zM392.19 1502.46 a7.5 7.5 0 1 0 15 0 a7.5 7.5 0 1 0 -15 0zM392.19 1427.46 a7.5 7.5 0 1 0 15 0 a7.5 7.5 0 1 0 -15 0z" fill="#03305d"></path>
        <path d="M49.28 664.8L92.59 689.8L92.59 739.8L49.28 764.8L5.98 739.8L5.98 689.8zM5.98 739.8L49.28 764.8L49.28 814.8L5.98 839.8L-37.32 814.8L-37.32 764.8zM5.98 1039.8L49.28 1064.8L49.28 1114.8L5.98 1139.8L-37.32 1114.8L-37.32 1064.8zM49.28 1114.8L92.59 1139.8L92.59 1189.8L49.28 1214.8L5.98 1189.8L5.98 1139.8zM5.98 1339.8L49.28 1364.8L49.28 1414.8L5.98 1439.8L-37.32 1414.8L-37.32 1364.8zM135.89 364.8L179.19 389.8L179.19 439.8L135.89 464.8L92.59 439.8L92.59 389.8zM92.59 439.8L135.89 464.8L135.89 514.8L92.59 539.8L49.28 514.8L49.28 464.8zM92.59 589.8L135.89 614.8L135.89 664.8L92.59 689.8L49.28 664.8L49.28 614.8zM135.89 964.8L179.19 989.8L179.19 1039.8L135.89 1064.8L92.59 1039.8L92.59 989.8zM135.89 1414.8L179.19 1439.8L179.19 1489.8L135.89 1514.8L92.59 1489.8L92.59 1439.8zM222.49 64.8L265.8 89.8L265.8 139.8L222.49 164.8L179.19 139.8L179.19 89.8zM179.19 139.8L222.49 164.8L222.49 214.8L179.19 239.8L135.89 214.8L135.89 164.8zM222.49 214.8L265.8 239.8L265.8 289.8L222.49 314.8L179.19 289.8L179.19 239.8zM179.19 289.8L222.49 314.8L222.49 364.8L179.19 389.8L135.89 364.8L135.89 314.8zM222.49 514.8L265.8 539.8L265.8 589.8L222.49 614.8L179.19 589.8L179.19 539.8zM222.49 664.8L265.8 689.8L265.8 739.8L222.49 764.8L179.19 739.8L179.19 689.8zM179.19 739.8L222.49 764.8L222.49 814.8L179.19 839.8L135.89 814.8L135.89 764.8zM265.8 289.8L309.1 314.8L309.1 364.8L265.8 389.8L222.49 364.8L222.49 314.8zM265.8 589.8L309.1 614.8L309.1 664.8L265.8 689.8L222.49 664.8L222.49 614.8zM265.8 1039.8L309.1 1064.8L309.1 1114.8L265.8 1139.8L222.49 1114.8L222.49 1064.8zM395.7 214.8L439.01 239.8L439.01 289.8L395.7 314.8L352.4 289.8L352.4 239.8zM395.7 364.8L439.01 389.8L439.01 439.8L395.7 464.8L352.4 439.8L352.4 389.8zM395.7 514.8L439.01 539.8L439.01 589.8L395.7 614.8L352.4 589.8L352.4 539.8zM352.4 589.8L395.7 614.8L395.7 664.8L352.4 689.8L309.1 664.8L309.1 614.8zM395.7 964.8L439.01 989.8L439.01 1039.8L395.7 1064.8L352.4 1039.8L352.4 989.8zM395.7 1114.8L439.01 1139.8L439.01 1189.8L395.7 1214.8L352.4 1189.8L352.4 1139.8zM439.01 -10.2L482.31 14.8L482.31 64.8L439.01 89.8L395.7 64.8L395.7 14.8zM482.31 64.8L525.61 89.8L525.61 139.8L482.31 164.8L439.01 139.8L439.01 89.8zM439.01 139.8L482.31 164.8L482.31 214.8L439.01 239.8L395.7 214.8L395.7 164.8zM439.01 289.8L482.31 314.8L482.31 364.8L439.01 389.8L395.7 364.8L395.7 314.8zM482.31 364.8L525.61 389.8L525.61 439.8L482.31 464.8L439.01 439.8L439.01 389.8zM439.01 439.8L482.31 464.8L482.31 514.8L439.01 539.8L395.7 514.8L395.7 464.8zM482.31 664.8L525.61 689.8L525.61 739.8L482.31 764.8L439.01 739.8L439.01 689.8zM439.01 1039.8L482.31 1064.8L482.31 1114.8L439.01 1139.8L395.7 1114.8L395.7 1064.8zM482.31 1114.8L525.61 1139.8L525.61 1189.8L482.31 1214.8L439.01 1189.8L439.01 1139.8zM439.01 1189.8L482.31 1214.8L482.31 1264.8L439.01 1289.8L395.7 1264.8L395.7 1214.8zM482.31 1414.8L525.61 1439.8L525.61 1489.8L482.31 1514.8L439.01 1489.8L439.01 1439.8z" stroke="rgba(6, 80, 156, 0.93)" stroke-width="2"></path>
    </g>
    <defs>
        <mask id="SvgjsMask1009">
            <rect width="500" height="1440" fill="#ffffff"></rect>
        </mask>
    </defs>
</svg>
