<?xml version="1.0" encoding="UTF-8" standalone="no"?>
<!DOCTYPE svg PUBLIC "-//W3C//DTD SVG 1.1//EN"
 "http://www.w3.org/Graphics/SVG/1.1/DTD/svg11.dtd">
<!-- Generated by graphviz version 2.47.0 (20210316.0004)
 -->
<!-- Title: dbml Pages: 1 -->
<svg width="1429pt" height="2606pt"
 viewBox="0.00 0.00 1428.52 2606.48" xmlns="http://www.w3.org/2000/svg" xmlns:xlink="http://www.w3.org/1999/xlink">
<g id="graph0" class="graph" transform="scale(1 1) rotate(0) translate(4 2602.48)">
<title>dbml</title>
<!-- account -->
<g id="account" class="node">
<title>account</title>
<ellipse fill="none" stroke="black" stroke-width="0" cx="402.34" cy="-1383.67" rx="402.19" ry="596.6"/>
<polygon fill="#1d71b8" stroke="transparent" points="120.34,-1743.67 120.34,-1803.67 685.34,-1803.67 685.34,-1743.67 120.34,-1743.67"/>
<polygon fill="none" stroke="#29235c" points="120.34,-1743.67 120.34,-1803.67 685.34,-1803.67 685.34,-1743.67 120.34,-1743.67"/>
<text text-anchor="start" x="284.57" y="-1764.87" font-family="Helvetica,sans-Serif" font-weight="bold" font-size="32.00" fill="#ffffff"> &#160;&#160;&#160;&#160;&#160;&#160;account &#160;&#160;&#160;&#160;&#160;&#160;</text>
<polygon fill="#e7e2dd" stroke="transparent" points="120.34,-1683.67 120.34,-1743.67 685.34,-1743.67 685.34,-1683.67 120.34,-1683.67"/>
<polygon fill="none" stroke="#29235c" points="120.34,-1683.67 120.34,-1743.67 685.34,-1743.67 685.34,-1683.67 120.34,-1683.67"/>
<text text-anchor="start" x="131.34" y="-1704.87" font-family="Helvetica,sans-Serif" font-weight="bold" font-size="32.00" fill="#29235c">id</text>
<text text-anchor="start" x="156.23" y="-1704.87" font-family="Helvetica,sans-Serif" font-size="32.00" fill="#29235c"> &#160;&#160;&#160;</text>
<text text-anchor="start" x="583.68" y="-1704.87" font-family="Helvetica,sans-Serif" font-style="italic" font-size="32.00" fill="#29235c">text</text>
<text text-anchor="start" x="635.25" y="-1704.87" font-family="Helvetica,sans-Serif" font-size="32.00" fill="#29235c"> </text>
<text text-anchor="start" x="644.15" y="-1704.87" font-family="Helvetica,sans-Serif" font-weight="bold" font-size="32.00" fill="#29235c">(!)</text>
<polygon fill="#e7e2dd" stroke="transparent" points="120.34,-1623.67 120.34,-1683.67 685.34,-1683.67 685.34,-1623.67 120.34,-1623.67"/>
<polygon fill="none" stroke="#29235c" points="120.34,-1623.67 120.34,-1683.67 685.34,-1683.67 685.34,-1623.67 120.34,-1623.67"/>
<text text-anchor="start" x="131.34" y="-1643.87" font-family="Helvetica,sans-Serif" font-size="32.00" fill="#29235c">account_id &#160;&#160;&#160;</text>
<text text-anchor="start" x="583.68" y="-1644.87" font-family="Helvetica,sans-Serif" font-style="italic" font-size="32.00" fill="#29235c">text</text>
<text text-anchor="start" x="635.25" y="-1644.87" font-family="Helvetica,sans-Serif" font-size="32.00" fill="#29235c"> </text>
<text text-anchor="start" x="644.15" y="-1644.87" font-family="Helvetica,sans-Serif" font-weight="bold" font-size="32.00" fill="#29235c">(!)</text>
<polygon fill="#e7e2dd" stroke="transparent" points="120.34,-1563.67 120.34,-1623.67 685.34,-1623.67 685.34,-1563.67 120.34,-1563.67"/>
<polygon fill="none" stroke="#29235c" points="120.34,-1563.67 120.34,-1623.67 685.34,-1623.67 685.34,-1563.67 120.34,-1563.67"/>
<text text-anchor="start" x="131.34" y="-1583.87" font-family="Helvetica,sans-Serif" font-size="32.00" fill="#29235c">provider_id &#160;&#160;&#160;</text>
<text text-anchor="start" x="583.68" y="-1584.87" font-family="Helvetica,sans-Serif" font-style="italic" font-size="32.00" fill="#29235c">text</text>
<text text-anchor="start" x="635.25" y="-1584.87" font-family="Helvetica,sans-Serif" font-size="32.00" fill="#29235c"> </text>
<text text-anchor="start" x="644.15" y="-1584.87" font-family="Helvetica,sans-Serif" font-weight="bold" font-size="32.00" fill="#29235c">(!)</text>
<polygon fill="#e7e2dd" stroke="transparent" points="120.34,-1503.67 120.34,-1563.67 685.34,-1563.67 685.34,-1503.67 120.34,-1503.67"/>
<polygon fill="none" stroke="#29235c" points="120.34,-1503.67 120.34,-1563.67 685.34,-1563.67 685.34,-1503.67 120.34,-1503.67"/>
<text text-anchor="start" x="131.34" y="-1523.87" font-family="Helvetica,sans-Serif" font-size="32.00" fill="#29235c">user_id &#160;&#160;&#160;</text>
<text text-anchor="start" x="583.68" y="-1524.87" font-family="Helvetica,sans-Serif" font-style="italic" font-size="32.00" fill="#29235c">text</text>
<text text-anchor="start" x="635.25" y="-1524.87" font-family="Helvetica,sans-Serif" font-size="32.00" fill="#29235c"> </text>
<text text-anchor="start" x="644.15" y="-1524.87" font-family="Helvetica,sans-Serif" font-weight="bold" font-size="32.00" fill="#29235c">(!)</text>
<polygon fill="#e7e2dd" stroke="transparent" points="120.34,-1443.67 120.34,-1503.67 685.34,-1503.67 685.34,-1443.67 120.34,-1443.67"/>
<polygon fill="none" stroke="#29235c" points="120.34,-1443.67 120.34,-1503.67 685.34,-1503.67 685.34,-1443.67 120.34,-1443.67"/>
<text text-anchor="start" x="131.34" y="-1463.87" font-family="Helvetica,sans-Serif" font-size="32.00" fill="#29235c">access_token &#160;&#160;&#160;</text>
<text text-anchor="start" x="622.77" y="-1464.87" font-family="Helvetica,sans-Serif" font-style="italic" font-size="32.00" fill="#29235c">text</text>
<polygon fill="#e7e2dd" stroke="transparent" points="120.34,-1383.67 120.34,-1443.67 685.34,-1443.67 685.34,-1383.67 120.34,-1383.67"/>
<polygon fill="none" stroke="#29235c" points="120.34,-1383.67 120.34,-1443.67 685.34,-1443.67 685.34,-1383.67 120.34,-1383.67"/>
<text text-anchor="start" x="131.34" y="-1403.87" font-family="Helvetica,sans-Serif" font-size="32.00" fill="#29235c">refresh_token &#160;&#160;&#160;</text>
<text text-anchor="start" x="622.77" y="-1404.87" font-family="Helvetica,sans-Serif" font-style="italic" font-size="32.00" fill="#29235c">text</text>
<polygon fill="#e7e2dd" stroke="transparent" points="120.34,-1323.67 120.34,-1383.67 685.34,-1383.67 685.34,-1323.67 120.34,-1323.67"/>
<polygon fill="none" stroke="#29235c" points="120.34,-1323.67 120.34,-1383.67 685.34,-1383.67 685.34,-1323.67 120.34,-1323.67"/>
<text text-anchor="start" x="131.34" y="-1343.87" font-family="Helvetica,sans-Serif" font-size="32.00" fill="#29235c">id_token &#160;&#160;&#160;</text>
<text text-anchor="start" x="622.77" y="-1344.87" font-family="Helvetica,sans-Serif" font-style="italic" font-size="32.00" fill="#29235c">text</text>
<polygon fill="#e7e2dd" stroke="transparent" points="120.34,-1263.67 120.34,-1323.67 685.34,-1323.67 685.34,-1263.67 120.34,-1263.67"/>
<polygon fill="none" stroke="#29235c" points="120.34,-1263.67 120.34,-1323.67 685.34,-1323.67 685.34,-1263.67 120.34,-1263.67"/>
<text text-anchor="start" x="131.06" y="-1283.87" font-family="Helvetica,sans-Serif" font-size="32.00" fill="#29235c">access_token_expires_at &#160;&#160;&#160;</text>
<text text-anchor="start" x="527.06" y="-1284.87" font-family="Helvetica,sans-Serif" font-style="italic" font-size="32.00" fill="#29235c">timestamp</text>
<polygon fill="#e7e2dd" stroke="transparent" points="120.34,-1203.67 120.34,-1263.67 685.34,-1263.67 685.34,-1203.67 120.34,-1203.67"/>
<polygon fill="none" stroke="#29235c" points="120.34,-1203.67 120.34,-1263.67 685.34,-1263.67 685.34,-1203.67 120.34,-1203.67"/>
<text text-anchor="start" x="131.06" y="-1223.87" font-family="Helvetica,sans-Serif" font-size="32.00" fill="#29235c">refresh_token_expires_at &#160;&#160;&#160;</text>
<text text-anchor="start" x="527.06" y="-1224.87" font-family="Helvetica,sans-Serif" font-style="italic" font-size="32.00" fill="#29235c">timestamp</text>
<polygon fill="#e7e2dd" stroke="transparent" points="120.34,-1143.67 120.34,-1203.67 685.34,-1203.67 685.34,-1143.67 120.34,-1143.67"/>
<polygon fill="none" stroke="#29235c" points="120.34,-1143.67 120.34,-1203.67 685.34,-1203.67 685.34,-1143.67 120.34,-1143.67"/>
<text text-anchor="start" x="131.34" y="-1163.87" font-family="Helvetica,sans-Serif" font-size="32.00" fill="#29235c">scope &#160;&#160;&#160;</text>
<text text-anchor="start" x="622.77" y="-1164.87" font-family="Helvetica,sans-Serif" font-style="italic" font-size="32.00" fill="#29235c">text</text>
<polygon fill="#e7e2dd" stroke="transparent" points="120.34,-1083.67 120.34,-1143.67 685.34,-1143.67 685.34,-1083.67 120.34,-1083.67"/>
<polygon fill="none" stroke="#29235c" points="120.34,-1083.67 120.34,-1143.67 685.34,-1143.67 685.34,-1083.67 120.34,-1083.67"/>
<text text-anchor="start" x="131.34" y="-1103.87" font-family="Helvetica,sans-Serif" font-size="32.00" fill="#29235c">password &#160;&#160;&#160;</text>
<text text-anchor="start" x="622.77" y="-1104.87" font-family="Helvetica,sans-Serif" font-style="italic" font-size="32.00" fill="#29235c">text</text>
<polygon fill="#e7e2dd" stroke="transparent" points="120.34,-1023.67 120.34,-1083.67 685.34,-1083.67 685.34,-1023.67 120.34,-1023.67"/>
<polygon fill="none" stroke="#29235c" points="120.34,-1023.67 120.34,-1083.67 685.34,-1083.67 685.34,-1023.67 120.34,-1023.67"/>
<text text-anchor="start" x="131.34" y="-1043.87" font-family="Helvetica,sans-Serif" font-size="32.00" fill="#29235c">created_at &#160;&#160;&#160;</text>
<text text-anchor="start" x="487.69" y="-1044.87" font-family="Helvetica,sans-Serif" font-style="italic" font-size="32.00" fill="#29235c">timestamp</text>
<text text-anchor="start" x="635.25" y="-1044.87" font-family="Helvetica,sans-Serif" font-size="32.00" fill="#29235c"> </text>
<text text-anchor="start" x="644.15" y="-1044.87" font-family="Helvetica,sans-Serif" font-weight="bold" font-size="32.00" fill="#29235c">(!)</text>
<polygon fill="#e7e2dd" stroke="transparent" points="120.34,-963.67 120.34,-1023.67 685.34,-1023.67 685.34,-963.67 120.34,-963.67"/>
<polygon fill="none" stroke="#29235c" points="120.34,-963.67 120.34,-1023.67 685.34,-1023.67 685.34,-963.67 120.34,-963.67"/>
<text text-anchor="start" x="131.34" y="-983.87" font-family="Helvetica,sans-Serif" font-size="32.00" fill="#29235c">updated_at &#160;&#160;&#160;</text>
<text text-anchor="start" x="487.69" y="-984.87" font-family="Helvetica,sans-Serif" font-style="italic" font-size="32.00" fill="#29235c">timestamp</text>
<text text-anchor="start" x="635.25" y="-984.87" font-family="Helvetica,sans-Serif" font-size="32.00" fill="#29235c"> </text>
<text text-anchor="start" x="644.15" y="-984.87" font-family="Helvetica,sans-Serif" font-weight="bold" font-size="32.00" fill="#29235c">(!)</text>
<polygon fill="none" stroke="#29235c" stroke-width="2" points="118.84,-962.67 118.84,-1804.67 685.84,-1804.67 685.84,-962.67 118.84,-962.67"/>
</g>
<!-- user -->
<g id="user" class="node">
<title>user</title>
<ellipse fill="none" stroke="black" stroke-width="0" cx="1130.6" cy="-898.67" rx="289.83" ry="342.48"/>
<polygon fill="#1d71b8" stroke="transparent" points="927.6,-1078.67 927.6,-1138.67 1333.6,-1138.67 1333.6,-1078.67 927.6,-1078.67"/>
<polygon fill="none" stroke="#29235c" points="927.6,-1078.67 927.6,-1138.67 1333.6,-1138.67 1333.6,-1078.67 927.6,-1078.67"/>
<text text-anchor="start" x="1037.24" y="-1099.87" font-family="Helvetica,sans-Serif" font-weight="bold" font-size="32.00" fill="#ffffff"> &#160;&#160;&#160;&#160;&#160;&#160;user &#160;&#160;&#160;&#160;&#160;&#160;</text>
<polygon fill="#e7e2dd" stroke="transparent" points="927.6,-1018.67 927.6,-1078.67 1333.6,-1078.67 1333.6,-1018.67 927.6,-1018.67"/>
<polygon fill="none" stroke="#29235c" points="927.6,-1018.67 927.6,-1078.67 1333.6,-1078.67 1333.6,-1018.67 927.6,-1018.67"/>
<text text-anchor="start" x="938.6" y="-1039.87" font-family="Helvetica,sans-Serif" font-weight="bold" font-size="32.00" fill="#29235c">id</text>
<text text-anchor="start" x="963.49" y="-1039.87" font-family="Helvetica,sans-Serif" font-size="32.00" fill="#29235c"> &#160;&#160;&#160;</text>
<text text-anchor="start" x="1231.94" y="-1039.87" font-family="Helvetica,sans-Serif" font-style="italic" font-size="32.00" fill="#29235c">text</text>
<text text-anchor="start" x="1283.51" y="-1039.87" font-family="Helvetica,sans-Serif" font-size="32.00" fill="#29235c"> </text>
<text text-anchor="start" x="1292.4" y="-1039.87" font-family="Helvetica,sans-Serif" font-weight="bold" font-size="32.00" fill="#29235c">(!)</text>
<polygon fill="#e7e2dd" stroke="transparent" points="927.6,-958.67 927.6,-1018.67 1333.6,-1018.67 1333.6,-958.67 927.6,-958.67"/>
<polygon fill="none" stroke="#29235c" points="927.6,-958.67 927.6,-1018.67 1333.6,-1018.67 1333.6,-958.67 927.6,-958.67"/>
<text text-anchor="start" x="938.6" y="-978.87" font-family="Helvetica,sans-Serif" font-size="32.00" fill="#29235c">name &#160;&#160;&#160;</text>
<text text-anchor="start" x="1231.94" y="-979.87" font-family="Helvetica,sans-Serif" font-style="italic" font-size="32.00" fill="#29235c">text</text>
<text text-anchor="start" x="1283.51" y="-979.87" font-family="Helvetica,sans-Serif" font-size="32.00" fill="#29235c"> </text>
<text text-anchor="start" x="1292.4" y="-979.87" font-family="Helvetica,sans-Serif" font-weight="bold" font-size="32.00" fill="#29235c">(!)</text>
<polygon fill="#e7e2dd" stroke="transparent" points="927.6,-898.67 927.6,-958.67 1333.6,-958.67 1333.6,-898.67 927.6,-898.67"/>
<polygon fill="none" stroke="#29235c" points="927.6,-898.67 927.6,-958.67 1333.6,-958.67 1333.6,-898.67 927.6,-898.67"/>
<text text-anchor="start" x="938.6" y="-918.87" font-family="Helvetica,sans-Serif" font-size="32.00" fill="#29235c">email &#160;&#160;&#160;</text>
<text text-anchor="start" x="1231.94" y="-919.87" font-family="Helvetica,sans-Serif" font-style="italic" font-size="32.00" fill="#29235c">text</text>
<text text-anchor="start" x="1283.51" y="-919.87" font-family="Helvetica,sans-Serif" font-size="32.00" fill="#29235c"> </text>
<text text-anchor="start" x="1292.4" y="-919.87" font-family="Helvetica,sans-Serif" font-weight="bold" font-size="32.00" fill="#29235c">(!)</text>
<polygon fill="#e7e2dd" stroke="transparent" points="927.6,-838.67 927.6,-898.67 1333.6,-898.67 1333.6,-838.67 927.6,-838.67"/>
<polygon fill="none" stroke="#29235c" points="927.6,-838.67 927.6,-898.67 1333.6,-898.67 1333.6,-838.67 927.6,-838.67"/>
<text text-anchor="start" x="938.15" y="-858.87" font-family="Helvetica,sans-Serif" font-size="32.00" fill="#29235c">email_verified &#160;&#160;&#160;</text>
<text text-anchor="start" x="1170.14" y="-859.87" font-family="Helvetica,sans-Serif" font-style="italic" font-size="32.00" fill="#29235c">boolean</text>
<text text-anchor="start" x="1283.97" y="-859.87" font-family="Helvetica,sans-Serif" font-size="32.00" fill="#29235c"> </text>
<text text-anchor="start" x="1292.87" y="-859.87" font-family="Helvetica,sans-Serif" font-weight="bold" font-size="32.00" fill="#29235c">(!)</text>
<polygon fill="#e7e2dd" stroke="transparent" points="927.6,-778.67 927.6,-838.67 1333.6,-838.67 1333.6,-778.67 927.6,-778.67"/>
<polygon fill="none" stroke="#29235c" points="927.6,-778.67 927.6,-838.67 1333.6,-838.67 1333.6,-778.67 927.6,-778.67"/>
<text text-anchor="start" x="938.6" y="-798.87" font-family="Helvetica,sans-Serif" font-size="32.00" fill="#29235c">image &#160;&#160;&#160;</text>
<text text-anchor="start" x="1271.03" y="-799.87" font-family="Helvetica,sans-Serif" font-style="italic" font-size="32.00" fill="#29235c">text</text>
<polygon fill="#e7e2dd" stroke="transparent" points="927.6,-718.67 927.6,-778.67 1333.6,-778.67 1333.6,-718.67 927.6,-718.67"/>
<polygon fill="none" stroke="#29235c" points="927.6,-718.67 927.6,-778.67 1333.6,-778.67 1333.6,-718.67 927.6,-718.67"/>
<text text-anchor="start" x="938.6" y="-738.87" font-family="Helvetica,sans-Serif" font-size="32.00" fill="#29235c">created_at &#160;&#160;&#160;</text>
<text text-anchor="start" x="1135.95" y="-739.87" font-family="Helvetica,sans-Serif" font-style="italic" font-size="32.00" fill="#29235c">timestamp</text>
<text text-anchor="start" x="1283.51" y="-739.87" font-family="Helvetica,sans-Serif" font-size="32.00" fill="#29235c"> </text>
<text text-anchor="start" x="1292.4" y="-739.87" font-family="Helvetica,sans-Serif" font-weight="bold" font-size="32.00" fill="#29235c">(!)</text>
<polygon fill="#e7e2dd" stroke="transparent" points="927.6,-658.67 927.6,-718.67 1333.6,-718.67 1333.6,-658.67 927.6,-658.67"/>
<polygon fill="none" stroke="#29235c" points="927.6,-658.67 927.6,-718.67 1333.6,-718.67 1333.6,-658.67 927.6,-658.67"/>
<text text-anchor="start" x="938.6" y="-678.87" font-family="Helvetica,sans-Serif" font-size="32.00" fill="#29235c">updated_at &#160;&#160;&#160;</text>
<text text-anchor="start" x="1135.95" y="-679.87" font-family="Helvetica,sans-Serif" font-style="italic" font-size="32.00" fill="#29235c">timestamp</text>
<text text-anchor="start" x="1283.51" y="-679.87" font-family="Helvetica,sans-Serif" font-size="32.00" fill="#29235c"> </text>
<text text-anchor="start" x="1292.4" y="-679.87" font-family="Helvetica,sans-Serif" font-weight="bold" font-size="32.00" fill="#29235c">(!)</text>
<polygon fill="none" stroke="#29235c" stroke-width="2" points="926.6,-657.67 926.6,-1139.67 1334.6,-1139.67 1334.6,-657.67 926.6,-657.67"/>
</g>
<!-- account&#45;&gt;user -->
<!-- account&#45;&gt;user -->
<g id="edge2" class="edge">
<title>account:e&#45;&gt;user:w</title>
<path fill="none" stroke="#29235c" stroke-width="3" d="M686.34,-1533.67C923.37,-1533.67 693,-1062.77 916.34,-1048.98"/>
<polygon fill="#29235c" stroke="#29235c" stroke-width="3" points="916.71,-1052.47 926.6,-1048.67 916.5,-1045.47 916.71,-1052.47"/>
<text text-anchor="middle" x="935.5" y="-1058.27" font-family="Helvetica,sans-Serif" font-size="32.00" fill="#29235c">1</text>
<text text-anchor="middle" x="680.12" y="-1543.27" font-family="Helvetica,sans-Serif" font-size="32.00" fill="#29235c">*</text>
</g>
<!-- session -->
<g id="session" class="node">
<title>session</title>
<ellipse fill="none" stroke="black" stroke-width="0" cx="402.34" cy="-384.67" rx="287.59" ry="384.83"/>
<polygon fill="#1d71b8" stroke="transparent" points="201.34,-594.67 201.34,-654.67 604.34,-654.67 604.34,-594.67 201.34,-594.67"/>
<polygon fill="none" stroke="#29235c" points="201.34,-594.67 201.34,-654.67 604.34,-654.67 604.34,-594.67 201.34,-594.67"/>
<text text-anchor="start" x="286.36" y="-615.87" font-family="Helvetica,sans-Serif" font-weight="bold" font-size="32.00" fill="#ffffff"> &#160;&#160;&#160;&#160;&#160;&#160;session &#160;&#160;&#160;&#160;&#160;&#160;</text>
<polygon fill="#e7e2dd" stroke="transparent" points="201.34,-534.67 201.34,-594.67 604.34,-594.67 604.34,-534.67 201.34,-534.67"/>
<polygon fill="none" stroke="#29235c" points="201.34,-534.67 201.34,-594.67 604.34,-594.67 604.34,-534.67 201.34,-534.67"/>
<text text-anchor="start" x="212.34" y="-555.87" font-family="Helvetica,sans-Serif" font-weight="bold" font-size="32.00" fill="#29235c">id</text>
<text text-anchor="start" x="237.23" y="-555.87" font-family="Helvetica,sans-Serif" font-size="32.00" fill="#29235c"> &#160;&#160;&#160;</text>
<text text-anchor="start" x="502.68" y="-555.87" font-family="Helvetica,sans-Serif" font-style="italic" font-size="32.00" fill="#29235c">text</text>
<text text-anchor="start" x="554.25" y="-555.87" font-family="Helvetica,sans-Serif" font-size="32.00" fill="#29235c"> </text>
<text text-anchor="start" x="563.15" y="-555.87" font-family="Helvetica,sans-Serif" font-weight="bold" font-size="32.00" fill="#29235c">(!)</text>
<polygon fill="#e7e2dd" stroke="transparent" points="201.34,-474.67 201.34,-534.67 604.34,-534.67 604.34,-474.67 201.34,-474.67"/>
<polygon fill="none" stroke="#29235c" points="201.34,-474.67 201.34,-534.67 604.34,-534.67 604.34,-474.67 201.34,-474.67"/>
<text text-anchor="start" x="212.34" y="-494.87" font-family="Helvetica,sans-Serif" font-size="32.00" fill="#29235c">expires_at &#160;&#160;&#160;</text>
<text text-anchor="start" x="406.69" y="-495.87" font-family="Helvetica,sans-Serif" font-style="italic" font-size="32.00" fill="#29235c">timestamp</text>
<text text-anchor="start" x="554.25" y="-495.87" font-family="Helvetica,sans-Serif" font-size="32.00" fill="#29235c"> </text>
<text text-anchor="start" x="563.15" y="-495.87" font-family="Helvetica,sans-Serif" font-weight="bold" font-size="32.00" fill="#29235c">(!)</text>
<polygon fill="#e7e2dd" stroke="transparent" points="201.34,-414.67 201.34,-474.67 604.34,-474.67 604.34,-414.67 201.34,-414.67"/>
<polygon fill="none" stroke="#29235c" points="201.34,-414.67 201.34,-474.67 604.34,-474.67 604.34,-414.67 201.34,-414.67"/>
<text text-anchor="start" x="212.34" y="-434.87" font-family="Helvetica,sans-Serif" font-size="32.00" fill="#29235c">token &#160;&#160;&#160;</text>
<text text-anchor="start" x="502.68" y="-435.87" font-family="Helvetica,sans-Serif" font-style="italic" font-size="32.00" fill="#29235c">text</text>
<text text-anchor="start" x="554.25" y="-435.87" font-family="Helvetica,sans-Serif" font-size="32.00" fill="#29235c"> </text>
<text text-anchor="start" x="563.15" y="-435.87" font-family="Helvetica,sans-Serif" font-weight="bold" font-size="32.00" fill="#29235c">(!)</text>
<polygon fill="#e7e2dd" stroke="transparent" points="201.34,-354.67 201.34,-414.67 604.34,-414.67 604.34,-354.67 201.34,-354.67"/>
<polygon fill="none" stroke="#29235c" points="201.34,-354.67 201.34,-414.67 604.34,-414.67 604.34,-354.67 201.34,-354.67"/>
<text text-anchor="start" x="212.34" y="-374.87" font-family="Helvetica,sans-Serif" font-size="32.00" fill="#29235c">created_at &#160;&#160;&#160;</text>
<text text-anchor="start" x="406.69" y="-375.87" font-family="Helvetica,sans-Serif" font-style="italic" font-size="32.00" fill="#29235c">timestamp</text>
<text text-anchor="start" x="554.25" y="-375.87" font-family="Helvetica,sans-Serif" font-size="32.00" fill="#29235c"> </text>
<text text-anchor="start" x="563.15" y="-375.87" font-family="Helvetica,sans-Serif" font-weight="bold" font-size="32.00" fill="#29235c">(!)</text>
<polygon fill="#e7e2dd" stroke="transparent" points="201.34,-294.67 201.34,-354.67 604.34,-354.67 604.34,-294.67 201.34,-294.67"/>
<polygon fill="none" stroke="#29235c" points="201.34,-294.67 201.34,-354.67 604.34,-354.67 604.34,-294.67 201.34,-294.67"/>
<text text-anchor="start" x="212.01" y="-314.87" font-family="Helvetica,sans-Serif" font-size="32.00" fill="#29235c">updated_at &#160;&#160;&#160;</text>
<text text-anchor="start" x="407.02" y="-315.87" font-family="Helvetica,sans-Serif" font-style="italic" font-size="32.00" fill="#29235c">timestamp</text>
<text text-anchor="start" x="554.58" y="-315.87" font-family="Helvetica,sans-Serif" font-size="32.00" fill="#29235c"> </text>
<text text-anchor="start" x="563.47" y="-315.87" font-family="Helvetica,sans-Serif" font-weight="bold" font-size="32.00" fill="#29235c">(!)</text>
<polygon fill="#e7e2dd" stroke="transparent" points="201.34,-234.67 201.34,-294.67 604.34,-294.67 604.34,-234.67 201.34,-234.67"/>
<polygon fill="none" stroke="#29235c" points="201.34,-234.67 201.34,-294.67 604.34,-294.67 604.34,-234.67 201.34,-234.67"/>
<text text-anchor="start" x="212.34" y="-254.87" font-family="Helvetica,sans-Serif" font-size="32.00" fill="#29235c">ip_address &#160;&#160;&#160;</text>
<text text-anchor="start" x="541.77" y="-255.87" font-family="Helvetica,sans-Serif" font-style="italic" font-size="32.00" fill="#29235c">text</text>
<polygon fill="#e7e2dd" stroke="transparent" points="201.34,-174.67 201.34,-234.67 604.34,-234.67 604.34,-174.67 201.34,-174.67"/>
<polygon fill="none" stroke="#29235c" points="201.34,-174.67 201.34,-234.67 604.34,-234.67 604.34,-174.67 201.34,-174.67"/>
<text text-anchor="start" x="212.34" y="-194.87" font-family="Helvetica,sans-Serif" font-size="32.00" fill="#29235c">user_agent &#160;&#160;&#160;</text>
<text text-anchor="start" x="541.77" y="-195.87" font-family="Helvetica,sans-Serif" font-style="italic" font-size="32.00" fill="#29235c">text</text>
<polygon fill="#e7e2dd" stroke="transparent" points="201.34,-114.67 201.34,-174.67 604.34,-174.67 604.34,-114.67 201.34,-114.67"/>
<polygon fill="none" stroke="#29235c" points="201.34,-114.67 201.34,-174.67 604.34,-174.67 604.34,-114.67 201.34,-114.67"/>
<text text-anchor="start" x="212.34" y="-134.87" font-family="Helvetica,sans-Serif" font-size="32.00" fill="#29235c">user_id &#160;&#160;&#160;</text>
<text text-anchor="start" x="502.68" y="-135.87" font-family="Helvetica,sans-Serif" font-style="italic" font-size="32.00" fill="#29235c">text</text>
<text text-anchor="start" x="554.25" y="-135.87" font-family="Helvetica,sans-Serif" font-size="32.00" fill="#29235c"> </text>
<text text-anchor="start" x="563.15" y="-135.87" font-family="Helvetica,sans-Serif" font-weight="bold" font-size="32.00" fill="#29235c">(!)</text>
<polygon fill="none" stroke="#29235c" stroke-width="2" points="199.84,-113.67 199.84,-655.67 604.84,-655.67 604.84,-113.67 199.84,-113.67"/>
</g>
<!-- session&#45;&gt;user -->
<!-- session&#45;&gt;user -->
<g id="edge4" class="edge">
<title>session:e&#45;&gt;user:w</title>
<path fill="none" stroke="#29235c" stroke-width="3" d="M605.34,-144.67C708.61,-144.67 813.25,-993.05 916.6,-1046.07"/>
<polygon fill="#29235c" stroke="#29235c" stroke-width="3" points="916.04,-1049.54 926.6,-1048.67 917.8,-1042.77 916.04,-1049.54"/>
<text text-anchor="middle" x="935.5" y="-1019.87" font-family="Helvetica,sans-Serif" font-size="32.00" fill="#29235c">1</text>
<text text-anchor="middle" x="599.12" y="-154.27" font-family="Helvetica,sans-Serif" font-size="32.00" fill="#29235c">*</text>
</g>
<!-- verification -->
<g id="verification" class="node">
<title>verification</title>
<ellipse fill="none" stroke="black" stroke-width="0" cx="402.34" cy="-2298.67" rx="279.11" ry="299.63"/>
<polygon fill="#1d71b8" stroke="transparent" points="207.34,-2448.67 207.34,-2508.67 598.34,-2508.67 598.34,-2448.67 207.34,-2448.67"/>
<polygon fill="none" stroke="#29235c" points="207.34,-2448.67 207.34,-2508.67 598.34,-2508.67 598.34,-2448.67 207.34,-2448.67"/>
<text text-anchor="start" x="264.15" y="-2469.87" font-family="Helvetica,sans-Serif" font-weight="bold" font-size="32.00" fill="#ffffff"> &#160;&#160;&#160;&#160;&#160;&#160;verification &#160;&#160;&#160;&#160;&#160;&#160;</text>
<polygon fill="#e7e2dd" stroke="transparent" points="207.34,-2388.67 207.34,-2448.67 598.34,-2448.67 598.34,-2388.67 207.34,-2388.67"/>
<polygon fill="none" stroke="#29235c" points="207.34,-2388.67 207.34,-2448.67 598.34,-2448.67 598.34,-2388.67 207.34,-2388.67"/>
<text text-anchor="start" x="218.34" y="-2409.87" font-family="Helvetica,sans-Serif" font-weight="bold" font-size="32.00" fill="#29235c">id</text>
<text text-anchor="start" x="243.23" y="-2409.87" font-family="Helvetica,sans-Serif" font-size="32.00" fill="#29235c"> &#160;&#160;&#160;</text>
<text text-anchor="start" x="496.68" y="-2409.87" font-family="Helvetica,sans-Serif" font-style="italic" font-size="32.00" fill="#29235c">text</text>
<text text-anchor="start" x="548.25" y="-2409.87" font-family="Helvetica,sans-Serif" font-size="32.00" fill="#29235c"> </text>
<text text-anchor="start" x="557.15" y="-2409.87" font-family="Helvetica,sans-Serif" font-weight="bold" font-size="32.00" fill="#29235c">(!)</text>
<polygon fill="#e7e2dd" stroke="transparent" points="207.34,-2328.67 207.34,-2388.67 598.34,-2388.67 598.34,-2328.67 207.34,-2328.67"/>
<polygon fill="none" stroke="#29235c" points="207.34,-2328.67 207.34,-2388.67 598.34,-2388.67 598.34,-2328.67 207.34,-2328.67"/>
<text text-anchor="start" x="218.34" y="-2348.87" font-family="Helvetica,sans-Serif" font-size="32.00" fill="#29235c">identifier &#160;&#160;&#160;</text>
<text text-anchor="start" x="496.68" y="-2349.87" font-family="Helvetica,sans-Serif" font-style="italic" font-size="32.00" fill="#29235c">text</text>
<text text-anchor="start" x="548.25" y="-2349.87" font-family="Helvetica,sans-Serif" font-size="32.00" fill="#29235c"> </text>
<text text-anchor="start" x="557.15" y="-2349.87" font-family="Helvetica,sans-Serif" font-weight="bold" font-size="32.00" fill="#29235c">(!)</text>
<polygon fill="#e7e2dd" stroke="transparent" points="207.34,-2268.67 207.34,-2328.67 598.34,-2328.67 598.34,-2268.67 207.34,-2268.67"/>
<polygon fill="none" stroke="#29235c" points="207.34,-2268.67 207.34,-2328.67 598.34,-2328.67 598.34,-2268.67 207.34,-2268.67"/>
<text text-anchor="start" x="218.34" y="-2288.87" font-family="Helvetica,sans-Serif" font-size="32.00" fill="#29235c">value &#160;&#160;&#160;</text>
<text text-anchor="start" x="496.68" y="-2289.87" font-family="Helvetica,sans-Serif" font-style="italic" font-size="32.00" fill="#29235c">text</text>
<text text-anchor="start" x="548.25" y="-2289.87" font-family="Helvetica,sans-Serif" font-size="32.00" fill="#29235c"> </text>
<text text-anchor="start" x="557.15" y="-2289.87" font-family="Helvetica,sans-Serif" font-weight="bold" font-size="32.00" fill="#29235c">(!)</text>
<polygon fill="#e7e2dd" stroke="transparent" points="207.34,-2208.67 207.34,-2268.67 598.34,-2268.67 598.34,-2208.67 207.34,-2208.67"/>
<polygon fill="none" stroke="#29235c" points="207.34,-2208.67 207.34,-2268.67 598.34,-2268.67 598.34,-2208.67 207.34,-2208.67"/>
<text text-anchor="start" x="218.26" y="-2228.87" font-family="Helvetica,sans-Serif" font-size="32.00" fill="#29235c">expires_at &#160;&#160;&#160;</text>
<text text-anchor="start" x="401.02" y="-2229.87" font-family="Helvetica,sans-Serif" font-style="italic" font-size="32.00" fill="#29235c">timestamp</text>
<text text-anchor="start" x="548.58" y="-2229.87" font-family="Helvetica,sans-Serif" font-size="32.00" fill="#29235c"> </text>
<text text-anchor="start" x="557.47" y="-2229.87" font-family="Helvetica,sans-Serif" font-weight="bold" font-size="32.00" fill="#29235c">(!)</text>
<polygon fill="#e7e2dd" stroke="transparent" points="207.34,-2148.67 207.34,-2208.67 598.34,-2208.67 598.34,-2148.67 207.34,-2148.67"/>
<polygon fill="none" stroke="#29235c" points="207.34,-2148.67 207.34,-2208.67 598.34,-2208.67 598.34,-2148.67 207.34,-2148.67"/>
<text text-anchor="start" x="218.34" y="-2168.87" font-family="Helvetica,sans-Serif" font-size="32.00" fill="#29235c">created_at &#160;&#160;&#160;</text>
<text text-anchor="start" x="439.79" y="-2169.87" font-family="Helvetica,sans-Serif" font-style="italic" font-size="32.00" fill="#29235c">timestamp</text>
<polygon fill="#e7e2dd" stroke="transparent" points="207.34,-2088.67 207.34,-2148.67 598.34,-2148.67 598.34,-2088.67 207.34,-2088.67"/>
<polygon fill="none" stroke="#29235c" points="207.34,-2088.67 207.34,-2148.67 598.34,-2148.67 598.34,-2088.67 207.34,-2088.67"/>
<text text-anchor="start" x="218.34" y="-2108.87" font-family="Helvetica,sans-Serif" font-size="32.00" fill="#29235c">updated_at &#160;&#160;&#160;</text>
<text text-anchor="start" x="439.79" y="-2109.87" font-family="Helvetica,sans-Serif" font-style="italic" font-size="32.00" fill="#29235c">timestamp</text>
<polygon fill="none" stroke="#29235c" stroke-width="2" points="205.84,-2087.67 205.84,-2509.67 598.84,-2509.67 598.84,-2087.67 205.84,-2087.67"/>
</g>
</g>
</svg>
